<svg width="163" height="163" viewBox="0 0 163 163" fill="none" xmlns="http://www.w3.org/2000/svg">
<path d="M81.0077 141.766C94.2588 141.763 107.146 137.428 117.704 129.421C128.263 121.415 135.914 110.176 139.493 97.4168C143.071 84.658 142.38 71.0792 137.525 58.7495C132.67 46.4199 123.917 36.0156 112.6 29.1222C101.283 22.2288 88.023 19.2242 74.8401 20.5665C61.6571 21.9087 49.2745 27.524 39.5791 36.5568C29.8837 45.5896 23.4072 57.5444 21.1367 70.5996C18.8661 83.6547 20.926 97.0942 27.0023 108.87L20.2517 141.766L53.1477 135.015C61.4915 139.329 70.9694 141.766 81.0077 141.766Z" stroke="#B3B3B3" stroke-width="12.1512" stroke-linecap="round" stroke-linejoin="round"/>
<path d="M50.6299 81.0078H50.6974V81.0753H50.6299V81.0078ZM81.0079 81.0078H81.0754V81.0753H81.0079V81.0078ZM111.386 81.0078H111.453V81.0753H111.386V81.0078Z" stroke="#B3B3B3" stroke-width="18.2268" stroke-linejoin="round"/>
</svg>
