<svg width="229" height="274" viewBox="0 0 229 274" fill="none" xmlns="http://www.w3.org/2000/svg">
<path d="M125.528 171.171H102.704V57.0549H125.528V171.171ZM123.165 270.543C147.814 260.638 228.232 221.702 228.232 136.833V62.3842C228.234 55.1997 225.97 48.1976 221.761 42.3747C217.553 36.5518 211.615 32.2047 204.793 29.9524L114.116 -0.117188L23.4394 29.9524C16.6171 32.2047 10.6792 36.5518 6.47075 42.3747C2.26235 48.1976 -0.002003 55.1997 1.32947e-06 62.3842V136.833C1.32947e-06 211.728 79.9383 257.523 104.45 269.79L113.58 274.355L123.165 270.543ZM197.603 51.6116C199.867 52.3656 201.838 53.8105 203.238 55.7428C204.638 57.6752 205.397 59.9979 205.409 62.3842V136.833C205.409 207.391 135.946 240.816 114.652 249.375C93.1073 238.591 22.8232 198.639 22.8232 136.833V62.3842C22.8346 59.9979 23.5937 57.6752 24.9939 55.7428C26.394 53.8105 28.3647 52.3656 30.6287 51.6116L114.116 23.9613L197.603 51.6116ZM125.528 193.994H102.704V216.817H125.528V193.994Z" fill="#D2524C"/>
</svg>
