<svg width="25" height="121" viewBox="0 0 25 121" fill="none" xmlns="http://www.w3.org/2000/svg">
<path d="M0 12.018C0 10.3355 -1.2368e-06 9.50626 0.096143 8.80922C0.402054 6.60641 1.41847 4.56361 2.99104 2.99104C4.56361 1.41847 6.60641 0.402054 8.80921 0.096143C9.49424 -1.2368e-06 10.3355 0 12.018 0C13.7006 0 14.5298 -1.2368e-06 15.2268 0.096143C17.4297 0.402054 19.4725 1.41847 21.045 2.99104C22.6176 4.56361 23.634 6.60641 23.9399 8.80922C24.0361 9.49425 24.0361 10.3355 24.0361 12.018C24.0361 13.7006 24.0361 14.5298 23.9399 15.2268C23.634 17.4297 22.6176 19.4725 21.045 21.045C19.4725 22.6176 17.4297 23.634 15.2268 23.9399C14.5418 24.0361 13.7006 24.0361 12.018 24.0361C10.3355 24.0361 9.50626 24.0361 8.80921 23.9399C6.60641 23.634 4.56361 22.6176 2.99104 21.045C1.41847 19.4725 0.402054 17.4297 0.096143 15.2268C-1.2368e-06 14.5418 0 13.7006 0 12.018ZM0 60.0902C0 58.4076 -1.2368e-06 57.5784 0.096143 56.8813C0.402054 54.6785 1.41847 52.6357 2.99104 51.0632C4.56361 49.4906 6.60641 48.4742 8.80921 48.1683C9.49424 48.0721 10.3355 48.0721 12.018 48.0721C13.7006 48.0721 14.5298 48.0721 15.2268 48.1683C17.4297 48.4742 19.4725 49.4906 21.045 51.0632C22.6176 52.6357 23.634 54.6785 23.9399 56.8813C24.0361 57.5664 24.0361 58.4076 24.0361 60.0902C24.0361 61.7727 24.0361 62.6019 23.9399 63.299C23.634 65.5018 22.6176 67.5446 21.045 69.1171C19.4725 70.6897 17.4297 71.7061 15.2268 72.012C14.5418 72.1082 13.7006 72.1082 12.018 72.1082C10.3355 72.1082 9.50626 72.1082 8.80921 72.012C6.60641 71.7061 4.56361 70.6897 2.99104 69.1171C1.41847 67.5446 0.402054 65.5018 0.096143 63.299C-1.2368e-06 62.6139 0 61.7727 0 60.0902ZM0 108.162C0 106.492 -1.2368e-06 105.651 0.096143 104.953C0.403845 102.755 1.41958 100.716 2.98957 99.1458C4.55956 97.5758 6.59832 96.5601 8.7972 96.2524C9.50626 96.1563 10.3355 96.1563 12.006 96.1563C13.6765 96.1563 14.5298 96.1563 15.2148 96.2524C17.4137 96.5601 19.4525 97.5758 21.0225 99.1458C22.5924 100.716 23.6082 102.755 23.9159 104.953C24.012 105.651 24.012 106.492 24.012 108.162C24.012 109.833 24.012 110.674 23.9159 111.371C23.6082 113.57 22.5924 115.609 21.0225 117.179C19.4525 118.749 17.4137 119.764 15.2148 120.072C14.5178 120.168 13.6765 120.168 12.006 120.168C10.3355 120.168 9.49424 120.168 8.7972 120.072C6.59832 119.764 4.55956 118.749 2.98957 117.179C1.41958 115.609 0.403845 113.57 0.096143 111.371C-1.2368e-06 110.674 0 109.833 0 108.162Z" fill="#59595B"/>
</svg>
