<svg width="192" height="192" viewBox="0 0 192 192" fill="none" xmlns="http://www.w3.org/2000/svg">
<g clip-path="url(#clip0_305_593)">
<path d="M183.708 151.762C183.708 155.998 182.025 160.061 179.029 163.057C176.033 166.053 171.97 167.736 167.733 167.736H23.9619C19.7252 167.736 15.662 166.053 12.6662 163.057C9.67034 160.061 7.9873 155.998 7.9873 151.762V63.9013C7.9873 59.6646 9.67034 55.6014 12.6662 52.6056C15.662 49.6098 19.7252 47.9267 23.9619 47.9267H55.9111L71.8857 23.9648H119.809L135.784 47.9267H167.733C171.97 47.9267 176.033 49.6098 179.029 52.6056C182.025 55.6014 183.708 59.6646 183.708 63.9013V151.762Z" stroke="#A2A2A2" stroke-width="15.9746" stroke-linecap="round" stroke-linejoin="round"/>
<path d="M95.8476 135.785C113.493 135.785 127.797 121.481 127.797 103.836C127.797 86.1909 113.493 71.8867 95.8476 71.8867C78.2025 71.8867 63.8984 86.1909 63.8984 103.836C63.8984 121.481 78.2025 135.785 95.8476 135.785Z" stroke="#A2A2A2" stroke-width="15.9746" stroke-linecap="round" stroke-linejoin="round"/>
</g>
<defs>
<clipPath id="clip0_305_593">
<rect width="191.695" height="191.695" fill="white"/>
</clipPath>
</defs>
</svg>
