<svg width="188" height="188" viewBox="0 0 188 188" fill="none" xmlns="http://www.w3.org/2000/svg">
<path d="M93.5521 70.1641C87.3492 70.1641 81.4004 72.6282 77.0143 77.0143C72.6282 81.4004 70.1641 87.3493 70.1641 93.5522C70.1641 99.7551 72.6282 105.704 77.0143 110.09C81.4004 114.476 87.3492 116.94 93.5521 116.94C99.755 116.94 105.704 114.476 110.09 110.09C114.476 105.704 116.94 99.7551 116.94 93.5522C116.94 87.3493 114.476 81.4004 110.09 77.0143C105.704 72.6282 99.755 70.1641 93.5521 70.1641ZM93.5521 132.532C83.214 132.532 73.2992 128.425 65.989 121.115C58.6788 113.805 54.572 103.89 54.572 93.5522C54.572 83.214 58.6788 73.2993 65.989 65.9891C73.2992 58.6789 83.214 54.5721 93.5521 54.5721C103.89 54.5721 113.805 58.6789 121.115 65.9891C128.425 73.2993 132.532 83.214 132.532 93.5522C132.532 103.89 128.425 113.805 121.115 121.115C113.805 128.425 103.89 132.532 93.5521 132.532ZM93.5521 35.082C54.572 35.082 21.283 59.3277 7.7959 93.5522C21.283 127.777 54.572 152.022 93.5521 152.022C132.532 152.022 165.821 127.777 179.308 93.5522C165.821 59.3277 132.532 35.082 93.5521 35.082Z" fill="#A2A2A2"/>
</svg>
