<svg width="272" height="272" viewBox="0 0 272 272" fill="none" xmlns="http://www.w3.org/2000/svg">
<g clip-path="url(#clip0_85_541)">
<path d="M135.171 271.601L131.166 269.825C126.709 267.868 22.6309 220.863 22.6309 135.745V61.9408C22.6348 54.8383 24.8797 47.9181 29.0457 42.1657C33.2117 36.4133 39.0865 32.122 45.8334 29.903L135.759 0.09375L225.684 29.903C232.431 32.122 238.306 36.4133 242.472 42.1657C246.638 47.9181 248.883 54.8383 248.887 61.9408V135.745C248.887 232.775 143.813 268.727 139.334 270.221L135.171 271.601ZM135.759 23.8167L52.9944 51.2615C50.7425 51.997 48.7812 53.4263 47.3912 55.3446C46.0013 57.2629 45.254 59.5718 45.2564 61.9408V135.745C45.2564 197.898 118.111 238.217 136.29 247.301C154.436 240.004 226.261 206.597 226.261 135.745V61.9408C226.264 59.5718 225.516 57.2629 224.126 55.3446C222.736 53.4263 220.775 51.997 218.523 51.2615L135.759 23.8167Z" fill="#5F9653"/>
<path d="M125.696 164.502H125.322C122.459 164.458 119.634 163.834 117.019 162.667C114.404 161.5 112.052 159.815 110.107 157.714L84.0195 130.563L100.321 114.929L125.707 141.401L184.319 82.7891L200.315 98.7854L140.798 158.302C138.816 160.283 136.46 161.851 133.868 162.915C131.276 163.979 128.498 164.518 125.696 164.502Z" fill="#5F9653"/>
</g>
<defs>
<clipPath id="clip0_85_541">
<rect width="271.507" height="271.507" fill="white"/>
</clipPath>
</defs>
</svg>
