<svg width="260" height="260" viewBox="0 0 260 260" fill="none" xmlns="http://www.w3.org/2000/svg">
<rect width="259.221" height="259.221" rx="129.611" fill="#2A3C52"/>
<path fill-rule="evenodd" clip-rule="evenodd" d="M168.495 103.688C168.495 125.162 151.087 142.571 129.612 142.571C108.138 142.571 90.729 125.162 90.729 103.688C90.729 82.2133 108.138 64.8047 129.612 64.8047C151.087 64.8047 168.495 82.2133 168.495 103.688ZM155.534 103.688C155.534 118.004 143.929 129.61 129.612 129.61C115.296 129.61 103.69 118.004 103.69 103.688C103.69 89.3715 115.296 77.7657 129.612 77.7657C143.929 77.7657 155.534 89.3715 155.534 103.688Z" fill="white"/>
<path d="M129.612 162.013C87.6548 162.013 51.906 186.823 38.2883 221.582C41.6057 224.876 45.1003 227.992 48.7565 230.914C58.8969 199.002 90.7078 174.974 129.612 174.974C168.517 174.974 200.328 199.002 210.468 230.914C214.124 227.992 217.619 224.876 220.936 221.582C207.319 186.823 171.57 162.013 129.612 162.013Z" fill="white"/>
</svg>
